<?xml version="1.0" encoding="UTF-8" standalone="no"?>
<svg
   xmlns:dc="http://purl.org/dc/elements/1.1/"
   xmlns:cc="http://creativecommons.org/ns#"
   xmlns:rdf="http://www.w3.org/1999/02/22-rdf-syntax-ns#"
   xmlns:svg="http://www.w3.org/2000/svg"
   xmlns="http://www.w3.org/2000/svg"
   xmlns:sodipodi="http://sodipodi.sourceforge.net/DTD/sodipodi-0.dtd"
   xmlns:inkscape="http://www.inkscape.org/namespaces/inkscape"
   id="bridge-15"
   width="15"
   height="15"
   viewBox="0 0 15 15"
   version="1.1"
   sodipodi:docname="bridge-mamp15.svg"
   inkscape:version="0.92.4 (5da689c313, 2019-01-14)">
  <metadata
     id="metadata9">
    <rdf:RDF>
      <cc:Work
         rdf:about="">
        <dc:format>image/svg+xml</dc:format>
        <dc:type
           rdf:resource="http://purl.org/dc/dcmitype/StillImage" />
        <dc:title />
      </cc:Work>
    </rdf:RDF>
  </metadata>
  <defs
     id="defs7" />
  <sodipodi:namedview
     pagecolor="#ffffff"
     bordercolor="#666666"
     borderopacity="1"
     objecttolerance="10"
     gridtolerance="10"
     guidetolerance="10"
     inkscape:pageopacity="0"
     inkscape:pageshadow="2"
     inkscape:window-width="716"
     inkscape:window-height="480"
     id="namedview5"
     showgrid="false"
     inkscape:zoom="15.733333"
     inkscape:cx="-2.82839"
     inkscape:cy="7.4999998"
     inkscape:window-x="0"
     inkscape:window-y="0"
     inkscape:window-maximized="0"
     inkscape:current-layer="bridge-15" />
  <path
     d="M0,8.842V13h2v-1c0.036-1.089,0.911-1.964,2-2c1.089,0.036,1.964,0.911,2,2v1h3v-1c0.036-1.089,0.911-1.964,2-2  c1.089,0.036,1.964,0.911,2,2v1h2V8.842C10.6,3.082,3.071,4.4,0,8.842z M9.5,5.734c0.514,0.121,1.016,0.289,1.5,0.5V9H9.5V5.734z   M9,5.634V9H7.5V5.506C8.003,5.506,8.505,5.549,9,5.634z M3.5,6.477C3.98,6.229,4.482,6.026,5,5.871V9H3.5V6.477z M5.5,9V5.73  C5.993,5.615,6.495,5.543,7,5.515V9H5.5z M3,6.744V9H0.5C1.176,8.094,2.032,7.328,3,6.744z M11.5,9V6.5l-0.053-0.053  C12.649,7.05,13.694,7.924,14.5,9H11.5z"
     id="path2"
     style="fill:#e0b169;fill-opacity:1" />
</svg>
