<?xml version="1.0" encoding="UTF-8" standalone="no"?>
<svg
   xmlns:dc="http://purl.org/dc/elements/1.1/"
   xmlns:cc="http://creativecommons.org/ns#"
   xmlns:rdf="http://www.w3.org/1999/02/22-rdf-syntax-ns#"
   xmlns:svg="http://www.w3.org/2000/svg"
   xmlns="http://www.w3.org/2000/svg"
   xmlns:sodipodi="http://sodipodi.sourceforge.net/DTD/sodipodi-0.dtd"
   xmlns:inkscape="http://www.inkscape.org/namespaces/inkscape"
   version="1.1"
   id="cemetery-15"
   width="15px"
   height="15px"
   viewBox="0 0 15 15"
   sodipodi:docname="cemetery-15.svg"
   inkscape:version="0.92.4 (5da689c313, 2019-01-14)">
  <metadata
     id="metadata9">
    <rdf:RDF>
      <cc:Work
         rdf:about="">
        <dc:format>image/svg+xml</dc:format>
        <dc:type
           rdf:resource="http://purl.org/dc/dcmitype/StillImage" />
        <dc:title></dc:title>
      </cc:Work>
    </rdf:RDF>
  </metadata>
  <defs
     id="defs7" />
  <sodipodi:namedview
     pagecolor="#ffffff"
     bordercolor="#666666"
     borderopacity="1"
     objecttolerance="10"
     gridtolerance="10"
     guidetolerance="10"
     inkscape:pageopacity="0"
     inkscape:pageshadow="2"
     inkscape:window-width="1920"
     inkscape:window-height="1017"
     id="namedview5"
     showgrid="false"
     inkscape:zoom="44.472889"
     inkscape:cx="7.9766949"
     inkscape:cy="6.8008475"
     inkscape:window-x="-8"
     inkscape:window-y="-8"
     inkscape:window-maximized="1"
     inkscape:current-layer="cemetery-15" />
  <path
     d="M 11.46,12 H 10.78 L 12,3.55 C 12.0175,3.2633 11.7992,3.0168 11.5126,2.9993 11.4884,2.9979 11.4641,2.9981 11.44,3 H 10.26 C 10.26,2.08 9.03,1 7.51,1 5.99,1 4.77,2.08 4.77,3 H 3.54 C 3.253,2.9885 3.0111,3.2117 2.9995,3.4987 2.9988,3.5158 2.999,3.5329 3,3.55 L 4.2,12 H 3.55 C 3.2609,11.9886 3.0162,12.2112 3,12.5 V 14 h 9 V 12.49 C 11.9839,12.2067 11.7435,11.9886 11.46,12 Z M 4.5,5 l 2.3689639,0.022486 0.040411,-2.0762711 1.4299348,0 -0.00914,2.1136473 2.2278744,-0.014886 0.03046,1.2367085 -2.3080422,0.022486 -0.017749,5.7721069 H 6.8644066 L 6.8573313,6.2698272 4.5,6.2473416 Z"
     id="path2"
     style="fill:#5f5f5f;fill-opacity:1"
     inkscape:connector-curvature="0"
     sodipodi:nodetypes="ccccccscccccccccccccccccccccccc" />
</svg>
