<?xml version="1.0" encoding="UTF-8" standalone="no"?>
<svg
   xmlns:dc="http://purl.org/dc/elements/1.1/"
   xmlns:cc="http://creativecommons.org/ns#"
   xmlns:rdf="http://www.w3.org/1999/02/22-rdf-syntax-ns#"
   xmlns:svg="http://www.w3.org/2000/svg"
   xmlns="http://www.w3.org/2000/svg"
   xmlns:sodipodi="http://sodipodi.sourceforge.net/DTD/sodipodi-0.dtd"
   xmlns:inkscape="http://www.inkscape.org/namespaces/inkscape"
   id="college-15"
   width="15px"
   height="15px"
   viewBox="0 0 15 15"
   version="1.1"
   sodipodi:docname="college-15.svg"
   inkscape:version="0.92.4 (5da689c313, 2019-01-14)">
  <metadata
     id="metadata9">
    <rdf:RDF>
      <cc:Work
         rdf:about="">
        <dc:format>image/svg+xml</dc:format>
        <dc:type
           rdf:resource="http://purl.org/dc/dcmitype/StillImage" />
      </cc:Work>
    </rdf:RDF>
  </metadata>
  <defs
     id="defs7" />
  <sodipodi:namedview
     pagecolor="#ffffff"
     bordercolor="#666666"
     borderopacity="1"
     objecttolerance="10"
     gridtolerance="10"
     guidetolerance="10"
     inkscape:pageopacity="0"
     inkscape:pageshadow="2"
     inkscape:window-width="716"
     inkscape:window-height="480"
     id="namedview5"
     showgrid="false"
     inkscape:zoom="15.733333"
     inkscape:cx="-2.82839"
     inkscape:cy="7.4999998"
     inkscape:window-x="0"
     inkscape:window-y="0"
     inkscape:window-maximized="0"
     inkscape:current-layer="college-15" />
  <path
     d="M7.5,1L0,4.5l2,0.9v1.7C1.4,7.3,1,7.9,1,8.5s0.4,1.2,1,1.4V10l-0.9,2.1  C0.8,13,1,14,2.5,14s1.7-1,1.4-1.9L3,10c0.6-0.3,1-0.8,1-1.5S3.6,7.3,3,7.1V5.9L7.5,8L15,4.5L7.5,1z M11.9,7.5l-4.5,2L5,8.4v0.1  c0,0.7-0.3,1.3-0.8,1.8l0.6,1.4v0.1C4.9,12.2,5,12.6,4.9,13c0.7,0.3,1.5,0.5,2.5,0.5c3.3,0,4.5-2,4.5-3L11.9,7.5L11.9,7.5z"
     id="path2"
     style="fill:#00adad;fill-opacity:1" />
</svg>
