<?xml version="1.0" encoding="UTF-8" standalone="no"?>
<svg
   xmlns:dc="http://purl.org/dc/elements/1.1/"
   xmlns:cc="http://creativecommons.org/ns#"
   xmlns:rdf="http://www.w3.org/1999/02/22-rdf-syntax-ns#"
   xmlns:svg="http://www.w3.org/2000/svg"
   xmlns="http://www.w3.org/2000/svg"
   xmlns:sodipodi="http://sodipodi.sourceforge.net/DTD/sodipodi-0.dtd"
   xmlns:inkscape="http://www.inkscape.org/namespaces/inkscape"
   version="1.1"
   id="doctor-15"
   width="15px"
   height="15px"
   viewBox="0 0 15 15"
   sodipodi:docname="doctor-15.svg"
   inkscape:version="0.92.4 (5da689c313, 2019-01-14)">
  <metadata
     id="metadata9">
    <rdf:RDF>
      <cc:Work
         rdf:about="">
        <dc:format>image/svg+xml</dc:format>
        <dc:type
           rdf:resource="http://purl.org/dc/dcmitype/StillImage" />
      </cc:Work>
    </rdf:RDF>
  </metadata>
  <defs
     id="defs7" />
  <sodipodi:namedview
     pagecolor="#ffffff"
     bordercolor="#666666"
     borderopacity="1"
     objecttolerance="10"
     gridtolerance="10"
     guidetolerance="10"
     inkscape:pageopacity="0"
     inkscape:pageshadow="2"
     inkscape:window-width="1920"
     inkscape:window-height="1017"
     id="namedview5"
     showgrid="false"
     inkscape:zoom="15.733333"
     inkscape:cx="-5.6112575"
     inkscape:cy="7.4999992"
     inkscape:window-x="-8"
     inkscape:window-y="-8"
     inkscape:window-maximized="1"
     inkscape:current-layer="doctor-15" />
  <path
     d="M5.5,7C4.1193,7,3,5.8807,3,4.5l0,0v-2C3,2.2239,3.2239,2,3.5,2H4c0.2761,0,0.5-0.2239,0.5-0.5S4.2761,1,4,1H3.5  C2.6716,1,2,1.6716,2,2.5v2c0.0013,1.1466,0.5658,2.2195,1.51,2.87l0,0C4.4131,8.1662,4.9514,9.297,5,10.5C5,12.433,6.567,14,8.5,14  s3.5-1.567,3.5-3.5V9.93c1.0695-0.2761,1.7126-1.367,1.4365-2.4365C13.1603,6.424,12.0695,5.7809,11,6.057  C9.9305,6.3332,9.2874,7.424,9.5635,8.4935C9.7454,9.198,10.2955,9.7481,11,9.93v0.57c0,1.3807-1.1193,2.5-2.5,2.5S6,11.8807,6,10.5  c0.0511-1.2045,0.5932-2.3356,1.5-3.13l0,0C8.4404,6.7172,9.001,5.6448,9,4.5v-2C9,1.6716,8.3284,1,7.5,1H7  C6.7239,1,6.5,1.2239,6.5,1.5S6.7239,2,7,2h0.5C7.7761,2,8,2.2239,8,2.5v2l0,0C8,5.8807,6.8807,7,5.5,7 M11.5,9  c-0.5523,0-1-0.4477-1-1s0.4477-1,1-1s1,0.4477,1,1S12.0523,9,11.5,9z"
     id="path2"
     style="fill:#009dff;fill-opacity:1" />
</svg>
