<?xml version="1.0" encoding="UTF-8" standalone="no"?>
<svg
   xmlns:dc="http://purl.org/dc/elements/1.1/"
   xmlns:cc="http://creativecommons.org/ns#"
   xmlns:rdf="http://www.w3.org/1999/02/22-rdf-syntax-ns#"
   xmlns:svg="http://www.w3.org/2000/svg"
   xmlns="http://www.w3.org/2000/svg"
   xmlns:sodipodi="http://sodipodi.sourceforge.net/DTD/sodipodi-0.dtd"
   xmlns:inkscape="http://www.inkscape.org/namespaces/inkscape"
   version="1.1"
   id="embassy-15"
   width="15px"
   height="15px"
   viewBox="0 0 15 15"
   sodipodi:docname="embassy-15.svg"
   inkscape:version="0.92.4 (5da689c313, 2019-01-14)">
  <metadata
     id="metadata9">
    <rdf:RDF>
      <cc:Work
         rdf:about="">
        <dc:format>image/svg+xml</dc:format>
        <dc:type
           rdf:resource="http://purl.org/dc/dcmitype/StillImage" />
      </cc:Work>
    </rdf:RDF>
  </metadata>
  <defs
     id="defs7" />
  <sodipodi:namedview
     pagecolor="#ffffff"
     bordercolor="#666666"
     borderopacity="1"
     objecttolerance="10"
     gridtolerance="10"
     guidetolerance="10"
     inkscape:pageopacity="0"
     inkscape:pageshadow="2"
     inkscape:window-width="1060"
     inkscape:window-height="480"
     id="namedview5"
     showgrid="false"
     inkscape:zoom="15.733333"
     inkscape:cx="-2.7648306"
     inkscape:cy="7.4999996"
     inkscape:window-x="0"
     inkscape:window-y="0"
     inkscape:window-maximized="0"
     inkscape:current-layer="embassy-15" />
  <path
     d="M6.65,2C5.43,2,4.48,3.38,4.11,3.82C4.0365,3.9102,3.9975,4.0237,4,4.14v4.4C3.9884,8.7827,4.1758,8.9889,4.4185,9.0005  C4.528,9.0057,4.6355,8.9699,4.72,8.9c0.4665-0.6264,1.1589-1.0461,1.93-1.17C8.06,7.73,8.6,9,10.07,9  c0.9948-0.0976,1.9415-0.4756,2.73-1.09c0.1272-0.0934,0.2016-0.2422,0.2-0.4V2.45c0.0275-0.2414-0.1459-0.4595-0.3874-0.487  C12.5332,1.954,12.4527,1.9668,12.38,2c-0.6813,0.5212-1.4706,0.8834-2.31,1.06C8.6,3.08,8.12,2,6.65,2z M2.5,3  c-0.5523,0-1-0.4477-1-1s0.4477-1,1-1s1,0.4477,1,1S3.0523,3,2.5,3z M3,4v9.48c0,0.2761-0.2239,0.5-0.5,0.5S2,13.7561,2,13.48V4  c0-0.2761,0.2239-0.5,0.5-0.5S3,3.7239,3,4z"
     id="path2"
     style="fill:#ff6f57;fill-opacity:1" />
</svg>
