<?xml version="1.0" encoding="UTF-8" standalone="no"?>
<svg
   xmlns:dc="http://purl.org/dc/elements/1.1/"
   xmlns:cc="http://creativecommons.org/ns#"
   xmlns:rdf="http://www.w3.org/1999/02/22-rdf-syntax-ns#"
   xmlns:svg="http://www.w3.org/2000/svg"
   xmlns="http://www.w3.org/2000/svg"
   xmlns:sodipodi="http://sodipodi.sourceforge.net/DTD/sodipodi-0.dtd"
   xmlns:inkscape="http://www.inkscape.org/namespaces/inkscape"
   id="entrance-alt1-15"
   width="15"
   height="15"
   viewBox="0 0 15 15"
   version="1.1"
   sodipodi:docname="entrance-alt-15.svg"
   inkscape:version="0.92.4 (5da689c313, 2019-01-14)">
  <metadata
     id="metadata9">
    <rdf:RDF>
      <cc:Work
         rdf:about="">
        <dc:format>image/svg+xml</dc:format>
        <dc:type
           rdf:resource="http://purl.org/dc/dcmitype/StillImage" />
      </cc:Work>
    </rdf:RDF>
  </metadata>
  <defs
     id="defs7" />
  <sodipodi:namedview
     pagecolor="#ffffff"
     bordercolor="#666666"
     borderopacity="1"
     objecttolerance="10"
     gridtolerance="10"
     guidetolerance="10"
     inkscape:pageopacity="0"
     inkscape:pageshadow="2"
     inkscape:window-width="848"
     inkscape:window-height="480"
     id="namedview5"
     showgrid="false"
     inkscape:zoom="15.733333"
     inkscape:cx="10.197591"
     inkscape:cy="7.4999998"
     inkscape:window-x="0"
     inkscape:window-y="0"
     inkscape:window-maximized="0"
     inkscape:current-layer="entrance-alt1-15" />
  <path
     d="M6.554,9.639a.5.5,0,0,0,.707.707L9.928,7.669a.25.25,0,0,0,0-.354h0L7.261,4.639a.5.5,0,0,0-.707.707L8.2,7H1.5a.5.5,0,0,0,0,1H8.2ZM12,1H5.5a.5.5,0,0,0,0,1h6a.5.5,0,0,1,.5.5v10a.5.5,0,0,1-.5.5H5.25a.5.5,0,0,0,0,1H12a1,1,0,0,0,1-1V2A1,1,0,0,0,12,1Z"
     id="path2"
     style="fill:#ff5f00;fill-opacity:1;stroke-width:0.4;stroke-miterlimit:4;stroke-dasharray:none" />
</svg>
