<?xml version="1.0" encoding="UTF-8" standalone="no"?>
<svg
   xmlns:dc="http://purl.org/dc/elements/1.1/"
   xmlns:cc="http://creativecommons.org/ns#"
   xmlns:rdf="http://www.w3.org/1999/02/22-rdf-syntax-ns#"
   xmlns:svg="http://www.w3.org/2000/svg"
   xmlns="http://www.w3.org/2000/svg"
   xmlns:sodipodi="http://sodipodi.sourceforge.net/DTD/sodipodi-0.dtd"
   xmlns:inkscape="http://www.inkscape.org/namespaces/inkscape"
   version="1.1"
   width="15px"
   height="15px"
   viewBox="0 0 15 15"
   id="home-15"
   sodipodi:docname="home-15.svg"
   inkscape:version="0.92.4 (5da689c313, 2019-01-14)">
  <metadata
     id="metadata9">
    <rdf:RDF>
      <cc:Work
         rdf:about="">
        <dc:format>image/svg+xml</dc:format>
        <dc:type
           rdf:resource="http://purl.org/dc/dcmitype/StillImage" />
      </cc:Work>
    </rdf:RDF>
  </metadata>
  <defs
     id="defs7" />
  <sodipodi:namedview
     pagecolor="#ffffff"
     bordercolor="#666666"
     borderopacity="1"
     objecttolerance="10"
     gridtolerance="10"
     guidetolerance="10"
     inkscape:pageopacity="0"
     inkscape:pageshadow="2"
     inkscape:window-width="718"
     inkscape:window-height="480"
     id="namedview5"
     showgrid="false"
     inkscape:zoom="15.733333"
     inkscape:cx="7.5635593"
     inkscape:cy="7.5"
     inkscape:window-x="0"
     inkscape:window-y="0"
     inkscape:window-maximized="0"
     inkscape:current-layer="home-15" />
  <path
     d="M2,13.7478c0,0.13807,0.11193,0.25,0.25,0.25h3.749v-3h3v3h3.749c0.13807,0,0.25-0.11193,0.25-0.25V7.9987H2
	C2,7.9987,2,13.7478,2,13.7478z M13.93,6.5778l-0.9319-0.8189V2c0-0.55228-0.44771-1-1-1s-1,0.44772-1,1v2L7.6808,1.09
	C7.5863,0.9897,7.42846,0.98478,7.3279,1.079L7.3169,1.09L1.0678,6.553C0.9734,6.65376,0.97856,6.81197,1.07932,6.90637
	C1.12478,6.94896,1.18451,6.97304,1.2468,6.9739L3,6.9989h10.7468c0.13807,0.00046,0.25037-0.1111,0.25083-0.24917
	C13.99784,6.68592,13.97365,6.62445,13.93,6.5779V6.5778z"
     id="path2"
     style="fill:#ffa0ff;fill-opacity:1" />
</svg>
