<?xml version="1.0" encoding="UTF-8" standalone="no"?>
<!-- Generator: Adobe Illustrator 17.1.0, SVG Export Plug-In . SVG Version: 6.00 Build 0)  -->

<svg
   xmlns:dc="http://purl.org/dc/elements/1.1/"
   xmlns:cc="http://creativecommons.org/ns#"
   xmlns:rdf="http://www.w3.org/1999/02/22-rdf-syntax-ns#"
   xmlns:svg="http://www.w3.org/2000/svg"
   xmlns="http://www.w3.org/2000/svg"
   xmlns:sodipodi="http://sodipodi.sourceforge.net/DTD/sodipodi-0.dtd"
   xmlns:inkscape="http://www.inkscape.org/namespaces/inkscape"
   version="1.1"
   id="Capa_1"
   x="0px"
   y="0px"
   viewBox="0 0 15 15"
   xml:space="preserve"
   sodipodi:docname="law-scales-15.svg"
   inkscape:version="0.92.4 (5da689c313, 2019-01-14)"
   width="15"
   height="15"><metadata
   id="metadata4610"><rdf:RDF><cc:Work
       rdf:about=""><dc:format>image/svg+xml</dc:format><dc:type
         rdf:resource="http://purl.org/dc/dcmitype/StillImage" /><dc:title /></cc:Work></rdf:RDF></metadata><defs
   id="defs4608" /><sodipodi:namedview
   pagecolor="#ffffff"
   bordercolor="#666666"
   borderopacity="1"
   objecttolerance="10"
   gridtolerance="10"
   guidetolerance="10"
   inkscape:pageopacity="0"
   inkscape:pageshadow="2"
   inkscape:window-width="1920"
   inkscape:window-height="1017"
   id="namedview4606"
   showgrid="false"
   inkscape:zoom="35.486252"
   inkscape:cx="3.2398613"
   inkscape:cy="5.1168271"
   inkscape:window-x="-8"
   inkscape:window-y="-8"
   inkscape:window-maximized="1"
   inkscape:current-layer="Capa_1" />
<path
   d="M 14.939225,7.6436601 12.729084,2.8286435 c -6.6e-5,-1.3e-4 -1.34e-4,-2.6e-4 -2e-4,-3.9e-4 l -0.0029,-0.0065 c -0.0074,-0.01612 -0.01622,-0.031198 -0.02596,-0.045628 -0.0027,-0.0039 -0.0058,-0.0078 -0.0084,-0.0117 -0.0088,-0.0117 -0.01816,-0.023008 -0.0283,-0.033538 -0.004,-0.0039 -0.0081,-0.0078 -0.01228,-0.0117 -0.01119,-0.0104 -0.02303,-0.01989 -0.03557,-0.028728 -0.0032,-0.0026 -0.0062,-0.0052 -0.0098,-0.0078 -0.01575,-0.0104 -0.03243,-0.01885 -0.0498,-0.026388 -0.005,-0.0026 -0.01007,-0.0039 -0.01515,-0.0052 -0.01362,-0.0052 -0.02744,-0.0091 -0.04172,-0.013 -0.0059,-0.0013 -0.01168,-0.0026 -0.01762,-0.0039 -0.01956,-0.0039 -0.03945,-0.0065 -0.0598,-0.0065 H 8.5217284 C 8.4549808,2.4247955 8.3252907,2.2498255 8.1556188,2.1231087 V 1.6495328 c 0,-0.1800528 -0.1494475,-0.3260735 -0.3337372,-0.3260735 H 7.1988614 c -0.1842898,0 -0.333737,0.1460207 -0.333737,0.3260735 V 2.1308693 C 6.7005918,2.2569621 6.5749732,2.4290332 6.5096275,2.6277399 H 2.5990968 c -0.020358,0 -0.040183,0.0026 -0.059805,0.0065 -0.00601,0.00104 -0.011747,0.0026 -0.017622,0.0039 -0.014283,0.0039 -0.028168,0.0078 -0.041717,0.013 -0.00508,0.0013 -0.010211,0.0039 -0.015151,0.0052 -0.017355,0.0078 -0.034041,0.01612 -0.049794,0.026388 -0.0034,0.0026 -0.0064,0.0052 -0.00968,0.0078 -0.012548,0.0091 -0.024363,0.018199 -0.035577,0.028728 -0.00427,0.0039 -0.00827,0.0078 -0.012348,0.0117 -0.010211,0.0104 -0.019557,0.02171 -0.028302,0.033538 -0.0028,0.0039 -0.00587,0.0078 -0.00847,0.0117 -0.00975,0.01443 -0.018556,0.029508 -0.025965,0.045628 l -0.00287,0.0065 c -6.68e-5,1.3e-4 -1.335e-4,2.6e-4 -2.003e-4,3.9e-4 L 0.07357506,7.6607541 c -0.0375121,0.052778 -0.0598725,0.1166034 -0.0598725,0.1857335 0,1.3928315 1.15980284,2.5260024 2.58539424,2.5260024 1.4255913,0 2.5853943,-1.1331709 2.5853943,-2.5260024 0,-0.069156 -0.022293,-0.1329176 -0.059872,-0.1856685 L 3.1145203,3.2814988 h 3.4031836 c 0.067215,0.189438 0.1889621,0.3537227 0.3473536,0.4751489 V 11.933258 H 3.9056107 c -0.1248844,0 -0.2393563,0.06812 -0.2966255,0.176596 l -0.918044,1.739066 c -0.053331,0.101139 -0.048926,0.222054 0.011615,0.319158 0.060606,0.09711 0.1685371,0.156381 0.2850114,0.156381 h 9.0455404 c 4.02e-4,-6.5e-5 8.01e-4,0 0.0014,0 0.18429,0 0.333737,-0.14602 0.333737,-0.326073 0,-0.06396 -0.01881,-0.123497 -0.05132,-0.173788 L 11.411621,12.109854 C 11.354354,12.001436 11.23988,11.933258 11.114995,11.933258 H 8.1555521 V 3.7644082 C 8.3190164,3.6422151 8.4448354,3.4751097 8.5135184,3.2814988 H 11.906155 L 9.8720284,7.71305 c -5.346e-4,0.00118 -8.014e-4,0.0026 -0.00129,0.0039 -0.0015,0.0039 -0.00268,0.0078 -0.00407,0.0104 -0.006,0.01495 -0.010811,0.030158 -0.014486,0.045628 -9.342e-4,0.0039 -0.00214,0.0078 -0.00289,0.0117 -0.00375,0.018718 -0.00546,0.037568 -0.00579,0.056418 0,0.0013 -5.336e-4,0.0039 -5.336e-4,0.0052 0,1.3928316 1.1598022,2.526003 2.5853942,2.526003 1.425531,-3e-6 2.585334,-1.1331737 2.585334,-2.5260052 0,-0.077085 -0.02856,-0.1469957 -0.07435,-0.2028275 z M 4.3286557,7.5204271 H 0.86953786 L 2.5990968,3.7522929 Z M 7.9049821,2.9446099 c 0,0.2097951 -0.174678,0.3803972 -0.3893376,0.3803972 -0.2147264,0 -0.3894043,-0.1706671 -0.3894043,-0.3803972 0,-0.2097951 0.1746779,-0.3803974 0.3894043,-0.3803974 0.2146596,-6.5e-5 0.3893376,0.1706023 0.3893376,0.3803974 z m 2.7869709,4.5758172 1.729626,-3.7681342 1.729559,3.7681342 z"
   id="path4573"
   style="fill:#a7a7a7;fill-opacity:1;stroke-width:0.06597631"
   inkscape:connector-curvature="0" />
<g
   id="g4575"
   transform="translate(0,-209.726)">
</g>
<g
   id="g4577"
   transform="translate(0,-209.726)">
</g>
<g
   id="g4579"
   transform="translate(0,-209.726)">
</g>
<g
   id="g4581"
   transform="translate(0,-209.726)">
</g>
<g
   id="g4583"
   transform="translate(0,-209.726)">
</g>
<g
   id="g4585"
   transform="translate(0,-209.726)">
</g>
<g
   id="g4587"
   transform="translate(0,-209.726)">
</g>
<g
   id="g4589"
   transform="translate(0,-209.726)">
</g>
<g
   id="g4591"
   transform="translate(0,-209.726)">
</g>
<g
   id="g4593"
   transform="translate(0,-209.726)">
</g>
<g
   id="g4595"
   transform="translate(0,-209.726)">
</g>
<g
   id="g4597"
   transform="translate(0,-209.726)">
</g>
<g
   id="g4599"
   transform="translate(0,-209.726)">
</g>
<g
   id="g4601"
   transform="translate(0,-209.726)">
</g>
<g
   id="g4603"
   transform="translate(0,-209.726)">
</g>
</svg>