<?xml version="1.0" encoding="UTF-8" standalone="no"?>
<svg
   xmlns:dc="http://purl.org/dc/elements/1.1/"
   xmlns:cc="http://creativecommons.org/ns#"
   xmlns:rdf="http://www.w3.org/1999/02/22-rdf-syntax-ns#"
   xmlns:svg="http://www.w3.org/2000/svg"
   xmlns="http://www.w3.org/2000/svg"
   xmlns:sodipodi="http://sodipodi.sourceforge.net/DTD/sodipodi-0.dtd"
   xmlns:inkscape="http://www.inkscape.org/namespaces/inkscape"
   version="1.1"
   id="museum-15"
   width="15px"
   height="15px"
   viewBox="0 0 15 15"
   sodipodi:docname="museum-15.svg"
   inkscape:version="0.92.4 (5da689c313, 2019-01-14)">
  <metadata
     id="metadata8">
    <rdf:RDF>
      <cc:Work
         rdf:about="">
        <dc:format>image/svg+xml</dc:format>
        <dc:type
           rdf:resource="http://purl.org/dc/dcmitype/StillImage" />
      </cc:Work>
    </rdf:RDF>
  </metadata>
  <defs
     id="defs6" />
  <sodipodi:namedview
     pagecolor="#ffffff"
     bordercolor="#666666"
     borderopacity="1"
     objecttolerance="10"
     gridtolerance="10"
     guidetolerance="10"
     inkscape:pageopacity="0"
     inkscape:pageshadow="2"
     inkscape:window-width="1920"
     inkscape:window-height="1017"
     id="namedview4"
     showgrid="false"
     inkscape:zoom="45.848339"
     inkscape:cx="8.3163026"
     inkscape:cy="6.7690678"
     inkscape:window-x="-8"
     inkscape:window-y="-8"
     inkscape:window-maximized="1"
     inkscape:current-layer="museum-15" />
  <path
     id="path7509"
     d="M 7.5,0.45803186 1,3.9033319 v 0.5547 h 13 v -0.5547 z M 2,5.4580319 v 5.0000001 l -1,1.5547 v 1.4453 h 13 v -1.4453 l -1,-1.5547 V 5.4580319 Z m 2.6152,1 c 0.169,-0.0023 0.3318,0.0639 0.4512,0.1836 l 2.4336,2.4336 2.4336,-2.4336 c 0.2445,-0.2437 0.6402,-0.2432 0.884,0.0013 0.1165,0.1168 0.1821,0.2751 0.1824,0.4401 v 4.2422001 c 0.0049,0.3452 -0.271,0.629 -0.6162,0.6338 -0.3452,0.0049 -0.629,-0.271 -0.6338,-0.6162 -10e-5,-0.0059 -10e-5,-0.0118 0,-0.0177 V 8.5908319 L 7.9414,10.399432 c -0.244,0.2433 -0.6388,0.2433 -0.8828,0 L 5.25,8.5908319 v 2.7344001 c 0.0049,0.3452 -0.271,0.629 -0.6162,0.6338 -0.3451,0.0049 -0.6289,-0.2709 -0.6338,-0.6161 -1e-4,-0.0059 -1e-4,-0.0118 0,-0.0177 V 7.0830319 c 0,-0.3414 0.2739,-0.6196 0.6152,-0.625 z"
     style="fill:#ffa284;fill-opacity:1"
     inkscape:connector-curvature="0" />
</svg>
