<?xml version="1.0" encoding="UTF-8" standalone="no"?>
<svg
   xmlns:dc="http://purl.org/dc/elements/1.1/"
   xmlns:cc="http://creativecommons.org/ns#"
   xmlns:rdf="http://www.w3.org/1999/02/22-rdf-syntax-ns#"
   xmlns:svg="http://www.w3.org/2000/svg"
   xmlns="http://www.w3.org/2000/svg"
   xmlns:sodipodi="http://sodipodi.sourceforge.net/DTD/sodipodi-0.dtd"
   xmlns:inkscape="http://www.inkscape.org/namespaces/inkscape"
   version="1.1"
   id="post-15"
   width="15px"
   height="15px"
   viewBox="0 0 15 15"
   sodipodi:docname="post-15.svg"
   inkscape:version="0.92.4 (5da689c313, 2019-01-14)">
  <metadata
     id="metadata9">
    <rdf:RDF>
      <cc:Work
         rdf:about="">
        <dc:format>image/svg+xml</dc:format>
        <dc:type
           rdf:resource="http://purl.org/dc/dcmitype/StillImage" />
      </cc:Work>
    </rdf:RDF>
  </metadata>
  <defs
     id="defs7" />
  <sodipodi:namedview
     pagecolor="#ffffff"
     bordercolor="#666666"
     borderopacity="1"
     objecttolerance="10"
     gridtolerance="10"
     guidetolerance="10"
     inkscape:pageopacity="0"
     inkscape:pageshadow="2"
     inkscape:window-width="1050"
     inkscape:window-height="480"
     id="namedview5"
     showgrid="false"
     inkscape:zoom="15.733333"
     inkscape:cx="9.9340572"
     inkscape:cy="7.4999986"
     inkscape:window-x="816"
     inkscape:window-y="80"
     inkscape:window-maximized="0"
     inkscape:current-layer="post-15" />
  <path
     d="M14,6.5V12c0,0.5523-0.4477,1-1,1H2c-0.5523,0-1-0.4477-1-1V6.5C1,6.2239,1.2239,6,1.5,6  c0.0692-0.0152,0.1408-0.0152,0.21,0l0,0l5.79,4l5.8-4l0,0c0.066-0.0138,0.134-0.0138,0.2,0C13.7761,6,14,6.2239,14,6.5z M1.25,3.92  L1.25,3.92L1.33,4L7.5,8l6.19-4l0,0h0.06l0,0c0.1796-0.0981,0.2792-0.2975,0.25-0.5C14,3.2239,13.7761,3,13.5,3h-12  C1.2239,3,1,3.2239,1,3.5C1.0026,3.6745,1.0978,3.8345,1.25,3.92z"
     id="path2"
     style="fill:#9dd7d6;fill-opacity:1" />
</svg>
