<?xml version="1.0" encoding="UTF-8" standalone="no"?>
<svg
   xmlns:dc="http://purl.org/dc/elements/1.1/"
   xmlns:cc="http://creativecommons.org/ns#"
   xmlns:rdf="http://www.w3.org/1999/02/22-rdf-syntax-ns#"
   xmlns:svg="http://www.w3.org/2000/svg"
   xmlns="http://www.w3.org/2000/svg"
   xmlns:sodipodi="http://sodipodi.sourceforge.net/DTD/sodipodi-0.dtd"
   xmlns:inkscape="http://www.inkscape.org/namespaces/inkscape"
   version="1.1"
   id="prison-15"
   width="15px"
   height="15px"
   viewBox="0 0 15 15"
   sodipodi:docname="prison-15.svg"
   inkscape:version="0.92.4 (5da689c313, 2019-01-14)">
  <metadata
     id="metadata8">
    <rdf:RDF>
      <cc:Work
         rdf:about="">
        <dc:format>image/svg+xml</dc:format>
        <dc:type
           rdf:resource="http://purl.org/dc/dcmitype/StillImage" />
      </cc:Work>
    </rdf:RDF>
  </metadata>
  <defs
     id="defs6" />
  <sodipodi:namedview
     pagecolor="#ffffff"
     bordercolor="#666666"
     borderopacity="1"
     objecttolerance="10"
     gridtolerance="10"
     guidetolerance="10"
     inkscape:pageopacity="0"
     inkscape:pageshadow="2"
     inkscape:window-width="718"
     inkscape:window-height="480"
     id="namedview4"
     showgrid="false"
     inkscape:zoom="15.733333"
     inkscape:cx="7.5635592"
     inkscape:cy="7.4999998"
     inkscape:window-x="694"
     inkscape:window-y="124"
     inkscape:window-maximized="0"
     inkscape:current-layer="prison-15" />
  <path
     id="rect3607"
     d="M3.5,1v13H12V1H3.5z M9.5,2H11v3.5H9.5V2z M4.5,2.0547H6V7H4.5V2.0547z M7,2.0547h1.5V7H7V2.0547z M10.25,6.5  C10.6642,6.5,11,6.8358,11,7.25S10.6642,8,10.25,8l0,0C9.8358,8,9.5,7.6642,9.5,7.25l0,0C9.5,6.8358,9.8358,6.5,10.25,6.5z M7,8  h1.4727L8.5,13H7.0273L7,8z M4.5,8.166H6V13H4.5V8.166z M9.5,9H11v4H9.5V9z"
     style="fill:#666666;fill-opacity:1" />
</svg>
