<?xml version="1.0" encoding="UTF-8" standalone="no"?>
<svg
   xmlns:dc="http://purl.org/dc/elements/1.1/"
   xmlns:cc="http://creativecommons.org/ns#"
   xmlns:rdf="http://www.w3.org/1999/02/22-rdf-syntax-ns#"
   xmlns:svg="http://www.w3.org/2000/svg"
   xmlns="http://www.w3.org/2000/svg"
   xmlns:sodipodi="http://sodipodi.sourceforge.net/DTD/sodipodi-0.dtd"
   xmlns:inkscape="http://www.inkscape.org/namespaces/inkscape"
   version="1.1"
   id="rail-15"
   width="15px"
   height="15px"
   viewBox="0 0 15 15"
   sodipodi:docname="rail-15.svg"
   inkscape:version="0.92.4 (5da689c313, 2019-01-14)">
  <metadata
     id="metadata8">
    <rdf:RDF>
      <cc:Work
         rdf:about="">
        <dc:format>image/svg+xml</dc:format>
        <dc:type
           rdf:resource="http://purl.org/dc/dcmitype/StillImage" />
      </cc:Work>
    </rdf:RDF>
  </metadata>
  <defs
     id="defs6" />
  <sodipodi:namedview
     pagecolor="#ffffff"
     bordercolor="#666666"
     borderopacity="1"
     objecttolerance="10"
     gridtolerance="10"
     guidetolerance="10"
     inkscape:pageopacity="0"
     inkscape:pageshadow="2"
     inkscape:window-width="1012"
     inkscape:window-height="480"
     id="namedview4"
     showgrid="false"
     inkscape:zoom="15.733333"
     inkscape:cx="6.9963353"
     inkscape:cy="7.4999996"
     inkscape:window-x="0"
     inkscape:window-y="0"
     inkscape:window-maximized="0"
     inkscape:current-layer="rail-15" />
  <path
     d="m 3,0.61864407 c -0.5523,0 -1,0.44770003 -1,1.00000003 v 8 c 0,0.5522999 0.4477,0.9999999 1,0.9999999 h 9 c 0.5523,0 1,-0.4477 1,-0.9999999 v -8 c 0,-0.5523 -0.4477,-1.00000003 -1,-1.00000003 z M 5.75,1.1186441 h 0.00977 3.5 c 0.1381,0 0.25,0.1119 0.25,0.25 0,0.1381 -0.1119,0.25 -0.25,0.25 H 5.75 c -0.1381,0 -0.25,-0.1119 -0.25,-0.25 0,-0.1381 0.1119,-0.25 0.25,-0.25 z m -2.25,1.5 H 7 v 4 H 3.5 c -0.2761,0 -0.5,-0.2239 -0.5,-0.5 v -3 c 0,-0.2761 0.2239,-0.5 0.5,-0.5 z m 4.5,0 h 3.5 c 0.2761,0 0.5,0.2239 0.5,0.5 v 3 c 0,0.2761 -0.2239,0.5 -0.5,0.5 H 8 Z m -3,5 c 0.5523,0 1,0.4477 1,1 0,0.5523 -0.4477,1 -1,1 -0.5523,0 -1,-0.4477 -1,-1 0,-0.5523 0.4477,-1 1,-1 z m 5,0 c 0.5523,0 1,0.4477 1,1 0,0.5523 -0.4477,1 -1,1 -0.5523,0 -1,-0.4477 -1,-1 0,-0.5523 0.4477,-1 1,-1 z m 0.445312,3.9941409 c -0.06471,0.0055 -0.130331,0.02444 -0.191406,0.05664 -0.2233,0.1176 -0.3236747,0.383141 -0.234375,0.619141 l 0.169922,0.330078 H 4.8105469 l 0.1289062,-0.269531 c 0.0977,-0.2583 -0.032716,-0.546832 -0.2910156,-0.644531 -0.236,-0.0892 -0.5015406,0.01117 -0.6191406,0.234374 l -1,2 C 3.0080969,13.996556 2.9986,14.057344 3,14.118644 c 0,0.2761 0.2239,0.5 0.5,0.5 0.1802,-10e-4 0.3450875,-0.100566 0.4296875,-0.259766 v -0.05078 H 4 L 4.3105469,13.618644 H 10.689453 L 11,14.308097 v 0.05078 c 0.0846,0.1592 0.249488,0.258766 0.429688,0.259766 0.276099,0 0.5,-0.2239 0.5,-0.5 0.0199,-0.0788 0.0199,-0.161434 0,-0.240234 l -1,-2 c -0.09652,-0.183225 -0.290229,-0.282158 -0.484376,-0.265625 z"
     id="path3"
     style="fill:#a55225;fill-opacity:1"
     inkscape:connector-curvature="0" />
</svg>
