<?xml version="1.0" encoding="UTF-8" standalone="no"?>
<svg
   xmlns:dc="http://purl.org/dc/elements/1.1/"
   xmlns:cc="http://creativecommons.org/ns#"
   xmlns:rdf="http://www.w3.org/1999/02/22-rdf-syntax-ns#"
   xmlns:svg="http://www.w3.org/2000/svg"
   xmlns="http://www.w3.org/2000/svg"
   xmlns:sodipodi="http://sodipodi.sourceforge.net/DTD/sodipodi-0.dtd"
   xmlns:inkscape="http://www.inkscape.org/namespaces/inkscape"
   id="slaughterhouse-15"
   width="15"
   height="15"
   viewBox="0 0 15 15"
   version="1.1"
   sodipodi:docname="slaughterhouse-15.svg"
   inkscape:version="0.92.4 (5da689c313, 2019-01-14)">
  <metadata
     id="metadata9">
    <rdf:RDF>
      <cc:Work
         rdf:about="">
        <dc:format>image/svg+xml</dc:format>
        <dc:type
           rdf:resource="http://purl.org/dc/dcmitype/StillImage" />
      </cc:Work>
    </rdf:RDF>
  </metadata>
  <defs
     id="defs7" />
  <sodipodi:namedview
     pagecolor="#ffffff"
     bordercolor="#666666"
     borderopacity="1"
     objecttolerance="10"
     gridtolerance="10"
     guidetolerance="10"
     inkscape:pageopacity="0"
     inkscape:pageshadow="2"
     inkscape:window-width="716"
     inkscape:window-height="480"
     id="namedview5"
     showgrid="false"
     inkscape:zoom="15.733333"
     inkscape:cx="-2.82839"
     inkscape:cy="7.4999998"
     inkscape:window-x="0"
     inkscape:window-y="0"
     inkscape:window-maximized="0"
     inkscape:current-layer="slaughterhouse-15" />
  <path
     d="M15,8.1c0,1.376-1.363.694-1.363.694L12.5,9H11a5.309,5.309,0,0,1-1.5,2,3.272,3.272,0,0,1-.523,1.125c-.077.091-.061.2-.068.33L9,14.755a.264.264,0,0,1-.266.25A.242.242,0,0,1,8.5,14.8L8,11.5H4v3.253A.247.247,0,0,1,3.753,15h0a.25.25,0,0,1-.241-.2L3,12v-.5a8.2,8.2,0,0,1-1.426-.1A1.886,1.886,0,0,1,.9,12.826c-.128.083-.148.211-.133.386,0,0,.19,1.532.19,1.538a.25.25,0,0,1-.25.25.238.238,0,0,1-.23-.174l-.427-1.7a.35.35,0,0,1,.055-.3c.437-.68-.049-2.55-.049-2.55A1.354,1.354,0,0,1,0,9.922V7.5A2.027,2.027,0,0,1,2.736,5.586s.1.03.142.049a15.15,15.15,0,0,0,3.814.038l.179-.062a1.842,1.842,0,0,1,1.26,0,.972.972,0,0,1,.227.089,1.994,1.994,0,0,1,.287.171A1.8,1.8,0,0,0,9.5,6h1V5l.5.5c.5-1.5,2.5-1,2.5-1a1.687,1.687,0,0,0-1.5,1l2.5,2a.613.613,0,0,1,.186-.069A.318.318,0,0,1,15,7.752V8.1Z"
     id="path2"
     style="fill:#700000;fill-opacity:1" />
</svg>
