<?xml version="1.0" encoding="UTF-8" standalone="no"?>
<svg
   xmlns:dc="http://purl.org/dc/elements/1.1/"
   xmlns:cc="http://creativecommons.org/ns#"
   xmlns:rdf="http://www.w3.org/1999/02/22-rdf-syntax-ns#"
   xmlns:svg="http://www.w3.org/2000/svg"
   xmlns="http://www.w3.org/2000/svg"
   xmlns:sodipodi="http://sodipodi.sourceforge.net/DTD/sodipodi-0.dtd"
   xmlns:inkscape="http://www.inkscape.org/namespaces/inkscape"
   width="15"
   height="15"
   viewBox="0 0 15 15"
   id="telephone-15"
   version="1.1"
   sodipodi:docname="telephone-15.svg"
   inkscape:version="0.92.4 (5da689c313, 2019-01-14)">
  <metadata
     id="metadata9">
    <rdf:RDF>
      <cc:Work
         rdf:about="">
        <dc:format>image/svg+xml</dc:format>
        <dc:type
           rdf:resource="http://purl.org/dc/dcmitype/StillImage" />
      </cc:Work>
    </rdf:RDF>
  </metadata>
  <defs
     id="defs7" />
  <sodipodi:namedview
     pagecolor="#ffffff"
     bordercolor="#666666"
     borderopacity="1"
     objecttolerance="10"
     gridtolerance="10"
     guidetolerance="10"
     inkscape:pageopacity="0"
     inkscape:pageshadow="2"
     inkscape:window-width="716"
     inkscape:window-height="480"
     id="namedview5"
     showgrid="false"
     inkscape:zoom="15.733333"
     inkscape:cx="-2.82839"
     inkscape:cy="7.4999998"
     inkscape:window-x="700"
     inkscape:window-y="110"
     inkscape:window-maximized="0"
     inkscape:current-layer="telephone-15" />
  <path
     d="M4.51,8.88a0.51,0.51,0,0,0,0,.72l0.72,0.72L3.07,12.5,2.7,12.13A2.24,2.24,0,0,1,2,10.69V9.24a2.24,2.24,0,0,1,.7-1.45L7.77,2.72A2.24,2.24,0,0,1,9.22,2h1.45a2.24,2.24,0,0,1,1.45.72l0.36,0.36L10.31,5.26,9.58,4.53a0.51,0.51,0,0,0-.72,0ZM4.13,13.6a1,1,0,0,0,1.4137.0363Q5.5623,13.6186,5.58,13.6l0.72-.72a1,1,0,0,0,.0363-1.4137Q6.3186,11.4477,6.3,11.43Zm7.25-7.28a1,1,0,0,0,1.4137.0363C12.8061,6.3445,13.55,5.6,13.55,5.6a1,1,0,0,0,.0363-1.4137Q13.5686,4.1677,13.55,4.15Z"
     id="path2"
     style="fill:#001c89;fill-opacity:1" />
</svg>
