<?xml version="1.0" encoding="UTF-8" standalone="no"?>
<svg
   xmlns:dc="http://purl.org/dc/elements/1.1/"
   xmlns:cc="http://creativecommons.org/ns#"
   xmlns:rdf="http://www.w3.org/1999/02/22-rdf-syntax-ns#"
   xmlns:svg="http://www.w3.org/2000/svg"
   xmlns="http://www.w3.org/2000/svg"
   xmlns:sodipodi="http://sodipodi.sourceforge.net/DTD/sodipodi-0.dtd"
   xmlns:inkscape="http://www.inkscape.org/namespaces/inkscape"
   version="1.1"
   id="toilet-15"
   width="15px"
   height="15px"
   viewBox="0 0 15 15"
   sodipodi:docname="toilet-15.svg"
   inkscape:version="0.92.4 (5da689c313, 2019-01-14)">
  <metadata
     id="metadata9">
    <rdf:RDF>
      <cc:Work
         rdf:about="">
        <dc:format>image/svg+xml</dc:format>
        <dc:type
           rdf:resource="http://purl.org/dc/dcmitype/StillImage" />
      </cc:Work>
    </rdf:RDF>
  </metadata>
  <defs
     id="defs7" />
  <sodipodi:namedview
     pagecolor="#ffffff"
     bordercolor="#666666"
     borderopacity="1"
     objecttolerance="10"
     gridtolerance="10"
     guidetolerance="10"
     inkscape:pageopacity="0"
     inkscape:pageshadow="2"
     inkscape:window-width="716"
     inkscape:window-height="480"
     id="namedview5"
     showgrid="false"
     inkscape:zoom="15.733333"
     inkscape:cx="-2.82839"
     inkscape:cy="7.4999998"
     inkscape:window-x="774"
     inkscape:window-y="212"
     inkscape:window-maximized="0"
     inkscape:current-layer="toilet-15" />
  <path
     d="M4.5,3C3.6716,3,3,2.3284,3,1.5S3.6716,0,4.5,0S6,0.6716,6,1.5S5.3284,3,4.5,3z M14,1.5C14,0.6716,13.3284,0,12.5,0  S11,0.6716,11,1.5S11.6716,3,12.5,3S14,2.3284,14,1.5z M8.86,6.64L8.86,6.64L6.38,4.15l0,0C6.2798,4.0492,6.142,3.9949,6,4H3  C2.8697,4.0003,2.7445,4.0503,2.65,4.14l0,0L0.14,6.63c-0.2261,0.177-0.2659,0.5039-0.0889,0.73s0.5039,0.2659,0.73,0.0889  C0.8142,7.423,0.8441,7.3931,0.87,7.36L3,5.2L1,11h2v3.33c-0.0075,0.0497-0.0075,0.1003,0,0.15  c0.0555,0.2761,0.3244,0.455,0.6005,0.3995C3.802,14.839,3.9595,14.6815,4,14.48l0,0V11h1v3.5l0,0  c0.0555,0.2761,0.3244,0.455,0.6005,0.3995C5.802,14.859,5.9595,14.7015,6,14.5c0.0075-0.0497,0.0075-0.1003,0-0.15V11h2L6,5.2  l2.14,2.16l0,0c0.0967,0.1081,0.2349,0.17,0.38,0.17C8.7954,7.5088,9.0061,7.2761,9,7C9.0023,6.8663,8.9521,6.737,8.86,6.64z   M14.5,4h-4C10.2239,4,10,4.2239,10,4.5v5c0,0.2761,0.2239,0.5,0.5,0.5S11,9.7761,11,9.5v5c0,0.2761,0.2239,0.5,0.5,0.5  s0.5-0.2239,0.5-0.5v-5h1v5c0,0.2761,0.2239,0.5,0.5,0.5s0.5-0.2239,0.5-0.5v-5c0,0.2761,0.2239,0.5,0.5,0.5S15,9.7761,15,9.5v-5  C15,4.2239,14.7761,4,14.5,4z"
     id="path2"
     style="fill:#8dcbff;fill-opacity:1" />
</svg>
